<svg width="20" height="25" viewBox="0 0 20 25" fill="none" xmlns="http://www.w3.org/2000/svg">
<path d="M19.7769 4.91407L15.1615 0.226575C15.0164 0.0803347 14.8198 -0.00115941 14.6154 1.24658e-05H2.30769C1.03317 1.24658e-05 0 1.04933 0 2.34376V22.6563C0 23.9507 1.03317 25 2.30769 25H17.6923C18.9668 25 20 23.9507 20 22.6563V5.46876C20.0012 5.26109 19.9209 5.06153 19.7769 4.91407ZM18.4615 22.6563C18.4615 23.0877 18.1172 23.4375 17.6923 23.4375H2.30769C1.88284 23.4375 1.53846 23.0877 1.53846 22.6563V2.34376C1.53846 1.91227 1.88284 1.56251 2.30769 1.56251H13.8461V4.68751C13.8461 5.55045 14.5349 6.25001 15.3846 6.25001H18.4615V22.6563Z" fill="white"/>
<path d="M16.9231 18.75H15.3846V20.3125H16.9231V18.75Z" fill="white"/>
<path d="M16.9231 10.9375H3.07692V12.5H16.9231V10.9375Z" fill="white"/>
<path d="M16.9231 14.8438H3.07692V16.4063H16.9231V14.8438Z" fill="white"/>
<path d="M13.8461 18.75H3.07692V20.3125H13.8461V18.75Z" fill="white"/>
</svg>
